HIERARCHY
ROOT root
{
  OFFSET 0.000000 0.000000 0.000000
  CHANNELS 6 Xposition Yposition Zposition Zrotation Xrotation Yrotation 
  JOINT RightUpLegDummy
  {
    OFFSET 0.000000 0.000000 0.000000
    CHANNELS 0 
    JOINT RightUpLeg
    {
      OFFSET -3.521969 -3.412232 0.040020
      CHANNELS 3 Zrotation Xrotation Yrotation 
      JOINT RightLeg
      {
        OFFSET -0.065819 -16.623508 5.460826
        CHANNELS 3 Zrotation Xrotation Yrotation 
        JOINT RightFoot
        {
          OFFSET 0.256402 -15.394092 -6.158094
          CHANNELS 3 Zrotation Xrotation Yrotation 
          JOINT RightToes
          {
            OFFSET -1.015696 -1.998681 3.031789
            CHANNELS 3 Zrotation Xrotation Yrotation 
            End Site
            {
              OFFSET -1.310114 -0.362344 3.602931
            }
          }
        }
      }
    }
  }
  JOINT SpineDummy
  {
    OFFSET 0.000000 0.000000 0.000000
    CHANNELS 0 
    JOINT Spine
    {
      OFFSET 0.000000 4.681300 0.000000
      CHANNELS 3 Zrotation Xrotation Yrotation 
      JOINT Spine1
      {
        OFFSET 2.071949 9.886125 0.108548
        CHANNELS 3 Zrotation Xrotation Yrotation 
        JOINT HEadDummy
        {
          OFFSET 0.000000 0.000000 0.000000
          CHANNELS 0 
          JOINT HEad
          {
            OFFSET -0.095701 3.425360 -0.286470
            CHANNELS 3 Zrotation Xrotation Yrotation 
            End Site
            {
              OFFSET -0.747771 4.988194 0.918898
            }
          }
        }
        JOINT LeftShoulder1Dummy
        {
          OFFSET 0.000000 0.000000 0.000000
          CHANNELS 0 
          JOINT LeftShoulder1
          {
            OFFSET 3.457013 0.018281 0.776975
            CHANNELS 3 Zrotation Xrotation Yrotation 
            JOINT LeftArm
            {
              OFFSET 3.894827 0.199098 1.093482
              CHANNELS 3 Zrotation Xrotation Yrotation 
              JOINT LeftForeArm
              {
                OFFSET 3.262652 -11.894247 3.823240
                CHANNELS 3 Zrotation Xrotation Yrotation 
                JOINT LeftHand
                {
                  OFFSET -1.519540 -8.072744 7.103004
                  CHANNELS 3 Zrotation Xrotation Yrotation 
                  End Site
                  {
                    OFFSET -1.058897 -4.575081 4.670206
                  }
                }
              }
            }
          }
        }
        JOINT RightShoulderDummy
        {
          OFFSET 0.000000 0.000000 0.000000
          CHANNELS 0 
          JOINT RightShoulder
          {
            OFFSET -3.407103 -0.315450 -0.920386
            CHANNELS 3 Zrotation Xrotation Yrotation 
            JOINT RightArm
            {
              OFFSET -3.182511 -2.457959 -0.484850
              CHANNELS 3 Zrotation Xrotation Yrotation 
              JOINT RightForeArm
              {
                OFFSET -1.492613 -12.131291 -4.320199
                CHANNELS 3 Zrotation Xrotation Yrotation 
                JOINT RightHand
                {
                  OFFSET -0.531323 -10.777759 -0.934089
                  CHANNELS 3 Zrotation Xrotation Yrotation 
                  End Site
                  {
                    OFFSET -1.128421 -6.472928 -0.326164
                  }
                }
              }
            }
          }
        }
      }
    }
  }
  JOINT LeftUpLegDummy
  {
    OFFSET 0.000000 0.000000 0.000000
    CHANNELS 0 
    JOINT LeftUpLeg
    {
      OFFSET 3.521969 -3.412232 0.040020
      CHANNELS 3 Zrotation Xrotation Yrotation 
      JOINT LeftLeg
      {
        OFFSET -0.878656 -15.959824 -7.118864
        CHANNELS 3 Zrotation Xrotation Yrotation 
        JOINT LeftFoot
        {
          OFFSET -1.336856 -11.261468 -12.097852
          CHANNELS 3 Zrotation Xrotation Yrotation 
          JOINT LeftToes
          {
            OFFSET 1.184947 -2.504138 2.557987
            CHANNELS 3 Zrotation Xrotation Yrotation 
            End Site
            {
              OFFSET 1.484637 -0.961396 3.420200
            }
          }
        }
      }
    }
  }
}
MOTION
Frames: 14
Frame Time: 0.033333
77.074700 40.564400 1.541980 -4.115020 -0.508338 -91.357030 0.329096 19.470955 -2.608717 3.320519 -25.585846 9.816231 -5.459707 2.621079 1.779626 -0.000000 -0.000000 -0.000000 12.495647 9.442177 4.014177 -14.487245 1.798487 8.061367 -4.019072 -7.400827 -4.707180 -0.000000 -0.000000 -0.000000 -0.598344 6.985148 17.454084 6.577295 12.867595 -3.686727 -0.000000 -0.000000 -0.000000 0.569709 -0.168411 0.215080 -1.915384 -22.943267 11.534265 -0.124418 -1.918523 1.922542 1.271821 0.510570 -0.199403 0.164886 -23.685231 -4.331358 1.866043 -10.126696 2.093535 -0.981526 19.136810 -1.008300 -0.000000 -0.000000 -0.000000 
77.074700 40.564400 1.545830 -4.120061 -0.503836 -91.378529 0.328479 19.472979 -2.608756 3.319551 -25.585787 9.815951 -5.483739 2.628760 1.789004 -0.000000 -0.000000 -0.000000 12.555772 9.482401 4.026146 -14.599018 1.713321 8.096541 -3.952411 -7.486977 -4.749712 -0.000000 -0.000000 -0.000000 -0.575459 7.015663 17.455840 6.637907 12.867382 -3.771337 -0.000000 -0.000000 -0.000000 0.671018 -0.193753 0.223251 -1.982127 -22.836814 11.525935 -0.156452 -1.958175 1.850891 1.215446 0.481972 -0.185267 0.158284 -23.677178 -4.331521 1.903640 -10.124267 2.135405 -0.983450 19.102407 -1.002878 -0.000000 -0.000000 -0.000000 
77.074700 40.564400 1.551080 -4.123142 -0.505534 -91.392065 0.323454 19.474061 -2.608777 3.313163 -25.585816 9.813576 -5.534248 2.644887 1.808731 -0.000000 -0.000000 -0.000000 12.635964 9.537231 4.029162 -14.777359 1.589388 8.134638 -3.879446 -7.656640 -4.908684 -0.000000 -0.000000 -0.000000 -0.553582 7.033165 17.519537 6.753012 12.887875 -3.922431 -0.000000 -0.000000 -0.000000 0.841933 -0.236472 0.237138 -2.066834 -22.653392 11.604485 -0.229071 -2.061721 1.703901 1.169446 0.500722 -0.181194 0.144824 -23.677292 -4.334471 1.924090 -10.108691 2.162146 -0.988017 19.072232 -0.995902 -0.000000 -0.000000 -0.000000 
77.075300 40.564400 1.556130 -4.098283 -0.518232 -91.389204 0.308710 19.445991 -2.608192 3.302210 -25.585525 9.812469 -5.569612 2.656169 1.822539 -0.000000 -0.000000 -0.000000 12.654482 9.540368 4.023037 -14.857068 1.539631 8.138715 -3.717903 -7.771467 -4.634759 -0.000000 -0.000000 -0.000000 -0.580847 7.014606 17.634633 6.838014 12.912647 -4.022024 -0.000000 -0.000000 -0.000000 0.893451 -0.249340 0.241349 -2.083407 -22.636315 11.610088 -0.214768 -2.049595 1.813428 1.275350 0.562814 -0.201365 0.121422 -23.711117 -4.348070 1.909553 -10.091775 2.153913 -0.988931 19.080045 -0.996096 -0.000000 -0.000000 -0.000000 
77.078400 40.564100 1.561960 -4.060398 -0.527809 -91.388911 0.291336 19.397808 -2.607649 3.301926 -25.584457 9.823440 -5.554041 2.648289 1.816025 -0.000000 -0.000000 -0.000000 12.624962 9.512202 4.021106 -14.802011 1.565057 8.121379 -3.378569 -7.648613 -3.579098 -0.000000 -0.000000 -0.000000 -0.640032 7.010910 17.680790 6.839142 12.899236 -4.013419 -0.000000 -0.000000 -0.000000 0.752294 -0.214073 0.229839 -2.003592 -22.850215 11.431178 -0.069396 -1.848644 2.233815 1.441806 0.579637 -0.219779 0.099804 -23.763709 -4.363281 1.898412 -10.082986 2.150855 -0.970411 19.108748 -1.013620 -0.000000 -0.000000 -0.000000 
77.082900 40.562300 1.568380 -4.044307 -0.520284 -91.389077 0.287938 19.373057 -2.611609 3.308768 -25.583318 9.818901 -5.514152 2.623234 1.798629 -0.000000 -0.000000 -0.000000 12.618341 9.497073 4.023816 -14.720243 1.622723 8.110382 -3.032963 -7.270708 -2.381416 -0.000000 -0.000000 -0.000000 -0.679351 7.020592 17.618785 6.788970 12.852952 -3.949662 -0.000000 -0.000000 -0.000000 0.555474 -0.165079 0.213766 -1.885644 -23.099082 11.231591 0.085833 -1.622800 2.599179 1.405363 0.563164 -0.208312 0.102475 -23.794497 -4.358043 1.901949 -10.077072 2.166712 -0.927868 19.125073 -1.048191 -0.000000 -0.000000 -0.000000 
77.085700 40.560200 1.573930 -4.055052 -0.505791 -91.371100 0.292553 19.374309 -2.629190 3.321152 -25.569327 9.800028 -5.504436 2.607923 1.793017 -0.000000 -0.000000 -0.000000 12.644564 9.454635 4.021908 -14.701960 1.741673 8.105781 -2.834225 -7.018672 -1.661544 -0.000000 -0.000000 -0.000000 -0.685309 6.957937 17.578048 6.735354 12.822998 -3.878457 -0.000000 -0.000000 -0.000000 0.505115 -0.152932 0.207555 -1.866985 -23.227926 11.179238 0.155023 -1.523646 2.682999 1.129819 0.632341 -0.185068 0.114133 -23.793367 -4.347800 1.903819 -10.071884 2.175221 -0.885290 19.120295 -1.080383 -0.000000 -0.000000 -0.000000 
77.087300 40.559600 1.578430 -4.061950 -0.507462 -91.343471 0.281283 19.362557 -2.663731 3.346432 -25.526101 9.808857 -5.529508 2.608641 1.801730 -0.000000 -0.000000 -0.000000 12.656892 9.353655 4.009917 -14.746342 1.920033 8.093377 -2.663893 -6.853798 -1.157646 -0.000000 -0.000000 -0.000000 -0.669094 6.819494 17.654612 6.676504 12.812536 -3.783567 -0.000000 -0.000000 -0.000000 0.659878 -0.186724 0.216273 -2.014083 -23.266158 11.241334 0.168505 -1.519906 2.593138 0.873377 0.807039 -0.188991 0.091776 -23.790526 -4.368081 1.908490 -10.068583 2.167412 -0.876565 19.105650 -1.085418 -0.000000 -0.000000 -0.000000 
77.089400 40.559400 1.582650 -4.054108 -0.526226 -91.329998 0.253618 19.335508 -2.697291 3.372492 -25.490263 9.848129 -5.546425 2.600578 1.806351 -0.000000 -0.000000 -0.000000 12.661725 9.317487 3.982680 -14.845155 1.981959 8.080239 -2.493981 -6.725780 -0.745015 -0.000000 -0.000000 -0.000000 -0.613488 6.751584 17.747007 6.608060 12.765880 -3.676384 -0.000000 -0.000000 -0.000000 0.892727 -0.236244 0.234753 -2.193829 -23.235286 11.331619 0.167828 -1.551123 2.417622 0.805168 0.925583 -0.206461 0.038237 -23.806101 -4.410073 1.922249 -10.058434 2.159458 -0.902423 19.087059 -1.063400 -0.000000 -0.000000 -0.000000 
77.091500 40.558500 1.586340 -4.049183 -0.536685 -91.320200 0.237769 19.328510 -2.708081 3.379666 -25.493594 9.862017 -5.535947 2.581022 1.799853 -0.000000 -0.000000 -0.000000 12.715040 9.468816 3.937021 -14.997538 1.784122 8.080995 -2.539490 -6.968202 -1.001600 -0.000000 -0.000000 -0.000000 -0.512192 6.831908 17.732926 6.567428 12.683990 -3.627216 -0.000000 -0.000000 -0.000000 1.045725 -0.267734 0.245931 -2.221560 -23.080754 11.450931 0.131108 -1.642410 2.138571 0.833169 0.844956 -0.197391 0.013471 -23.828593 -4.424232 1.924052 -10.035202 2.158578 -0.919646 19.068106 -1.047983 -0.000000 -0.000000 -0.000000 
77.092500 40.557100 1.588920 -4.047894 -0.524855 -91.286903 0.244795 19.334904 -2.705056 3.379082 -25.505341 9.833372 -5.522438 2.572536 1.794004 -0.000000 -0.000000 -0.000000 12.808051 9.689908 3.889160 -15.146245 1.486085 8.088667 -2.796076 -7.671205 -1.820345 -0.000000 -0.000000 -0.000000 -0.416596 6.929254 17.665199 6.572163 12.659760 -3.649098 -0.000000 -0.000000 -0.000000 1.106893 -0.274639 0.246464 -2.132700 -22.848363 11.593402 0.056041 -1.780907 1.867540 0.837136 0.652614 -0.170675 0.043001 -23.848695 -4.399633 1.882815 -10.015190 2.133073 -0.891794 19.061745 -1.068671 -0.000000 -0.000000 -0.000000 
77.093300 40.556500 1.591090 -4.030552 -0.509849 -91.247985 0.250195 19.310564 -2.712925 3.395694 -25.482066 9.816096 -5.519975 2.574443 1.793407 -0.000000 -0.000000 -0.000000 12.871229 9.776459 3.862525 -15.242257 1.341298 8.090077 -2.837450 -7.934792 -2.016686 -0.000000 -0.000000 -0.000000 -0.365533 6.922187 17.652651 6.585508 12.740797 -3.672928 -0.000000 -0.000000 -0.000000 1.203645 -0.290860 0.249813 -2.147021 -22.684611 11.679824 0.006698 -1.865139 1.749995 0.786909 0.575111 -0.155069 0.076301 -23.875667 -4.379535 1.829493 -10.011384 2.093313 -0.842020 19.072835 -1.108242 -0.000000 -0.000000 -0.000000 
77.093700 40.556000 1.593370 -4.000590 -0.513627 -91.247085 0.236759 19.260005 -2.726854 3.416117 -25.446229 9.834221 -5.515655 2.567148 1.790485 -0.000000 -0.000000 -0.000000 12.896846 9.766797 3.848513 -15.345563 1.311726 8.090145 -2.598493 -7.747121 -1.521220 -0.000000 -0.000000 -0.000000 -0.321749 6.894226 17.679576 6.574216 12.842224 -3.655865 -0.000000 -0.000000 -0.000000 1.404759 -0.337775 0.266454 -2.319803 -22.613610 11.697575 0.010600 -1.868894 1.665383 0.655612 0.679165 -0.159259 0.074653 -23.911196 -4.381688 1.809114 -10.006459 2.084892 -0.826063 19.082490 -1.121631 -0.000000 -0.000000 -0.000000 
77.093400 40.555800 1.594790 -3.980867 -0.527176 -91.275247 0.224667 19.233567 -2.719131 3.403515 -25.446093 9.833116 -5.519204 2.560993 1.790176 -0.000000 -0.000000 -0.000000 12.935879 9.834445 3.822666 -15.503567 1.215984 8.097947 -2.637862 -8.050967 -1.885942 -0.000000 -0.000000 -0.000000 -0.260607 6.938401 17.693361 6.565030 12.872037 -3.644147 -0.000000 -0.000000 -0.000000 1.584220 -0.380870 0.281176 -2.433961 -22.538844 11.742448 0.005540 -1.891099 1.446263 0.482751 0.806472 -0.159468 0.073186 -23.939460 -4.371862 1.801853 -9.982611 2.106748 -0.854557 19.069668 -1.098237 -0.000000 -0.000000 -0.000000 
